<svg xmlns="http://www.w3.org/2000/svg" width="32" height="37" viewBox="0 0 510.955 512.006">
  <g id="_028-chicken-leg" data-name="028-chicken-leg" transform="translate(-0.526 0)">
    <path id="Path_116" data-name="Path 116" d="M462.886,48.594A55.245,55.245,0,0,0,408.11,0C365.7-.541,338.479,47.989,360.993,83.83L336.4,108.424a126.077,126.077,0,0,1,66.657,66.657l24.6-24.6c35.851,22.513,84.368-4.712,83.825-47.117a55.247,55.247,0,0,0-48.59-54.775Z"/>
    <path id="Path_117" data-name="Path 117" d="M287.609,128.538a94.631,94.631,0,0,0-76.126,37.96c-18.682,24.894-45.726,26.343-52.637,26.343-211.1,8.081-211.162,311.174.232,319.165,88.039,0,159.563-71.664,159.563-159.37,0-6.911,1.449-33.955,26.343-52.637,72.643-54.6,33.522-171.369-57.375-171.461Zm-177.8,266.548a15,15,0,0,1-30,0V304.221c.724-19.851,29.259-19.893,30,0Zm64.266,37.652c-.714,19.831-29.252,19.912-30,0V272.072c.714-19.831,29.252-19.912,30,0V432.738Zm64.267-32.149c-.717,19.836-29.254,19.907-30,0V257.034c.717-19.836,29.254-19.907,30,0Z"/>
  </g>
</svg>
