<svg id="_045-telephone" data-name="045-telephone" xmlns="http://www.w3.org/2000/svg" width="32" height="37" viewBox="0 0 297.001 273.961">
  <path id="Path_146" data-name="Path 146" d="M249.985,29.213C221.378,17.805,185.337,11.519,148.5,11.519S75.621,17.805,47.015,29.213C16.7,41.305,0,57.119,0,73.744V125.51a10.458,10.458,0,0,0,10.458,10.457H67.625a18.176,18.176,0,0,1-7.489,10.4,21.562,21.562,0,0,1-9.894,3.2,35.928,35.928,0,0,0-35.021,30.916L6.095,251.91A29.935,29.935,0,0,0,13.1,275.533a29.936,29.936,0,0,0,22.543,9.947H261.355a29.334,29.334,0,0,0,29.551-33.568l-9.127-71.434a35.924,35.924,0,0,0-35.118-30.916,21.542,21.542,0,0,1-9.241-2.854,17.915,17.915,0,0,1-8.086-10.742h57.209A10.458,10.458,0,0,0,297,125.509V73.744C297,57.119,280.3,41.305,249.985,29.213ZM226.762,164.705a42.059,42.059,0,0,0,19.9,5.773c6.794,0,13.51,5.912,14.372,12.65l9.127,71.436a8.452,8.452,0,0,1-8.8,10H35.646a8.453,8.453,0,0,1-8.805-10l9.127-71.434c.862-6.738,7.578-12.65,14.372-12.65a42.059,42.059,0,0,0,19.9-5.773c7.484-4.432,16.158-12.893,18.853-28.738h7.644a10.458,10.458,0,0,0,10.458-10.457v-43.8c3.453.041,8.049.451,13.329.924,7.838.7,17.592,1.568,27.979,1.568s20.14-.869,27.977-1.568c5.28-.473,9.877-.883,13.33-.924v43.8a10.458,10.458,0,0,0,10.458,10.457h7.644C210.6,151.813,219.277,160.273,226.762,164.705ZM210.724,82.5c0-16.5-5.9-21.709-20.368-21.709-4.439,0-9.676.467-15.736,1.008-7.811.7-16.666,1.488-26.119,1.488s-18.309-.791-26.12-1.488c-6.061-.541-11.3-1.008-15.735-1.008-14.465,0-20.37,5.209-20.37,21.709v32.553H20.915V73.744c0-4.664,9.016-15.2,33.848-25.1,25.821-10.3,59.987-16.2,93.737-16.2s67.916,5.906,93.736,16.2c24.833,9.9,33.849,20.44,33.849,25.1v41.309H210.724Z" transform="translate(0 -11.519)"/>
  <path id="Path_147" data-name="Path 147" d="M148.5,132.307a62.224,62.224,0,1,0,62.224,62.225A62.295,62.295,0,0,0,148.5,132.307Zm0,103.533a41.309,41.309,0,1,1,41.308-41.309A41.355,41.355,0,0,1,148.5,235.84Z" transform="translate(0 -11.519)"/>
</svg>
