<svg id="_063-gallon" data-name="063-gallon" xmlns="http://www.w3.org/2000/svg" width="411.298" height="512" viewBox="0 0 411.298 512">
  <g id="Group_67" data-name="Group 67">
    <path id="Path_172" data-name="Path 172" d="M435.85,131.7l-90-90A143.168,143.168,0,0,0,245.351,0c-107.4,0-195,87.6-195,195V467a44.94,44.94,0,0,0,45,45h300a44.94,44.94,0,0,0,45-45V142.2a14.068,14.068,0,0,0-4.5-10.5ZM270.251,108l-80.4,112.5a43.373,43.373,0,0,1-48.9,16.2c-18.6-6-30.6-22.2-30.6-41.7,0-74.4,60.6-135,135-135a30.513,30.513,0,0,1,24.9,48Z" transform="translate(-50.351 0)"/>
  </g>
  <path id="Path_173" data-name="Path 173" d="M446.664,99.888,457.3,89.18A15.013,15.013,0,0,0,457.255,68l-63.6-63.6a15.039,15.039,0,0,0-21.182-.044L361.761,14.986Z" transform="translate(-50.351 0)"/>
</svg>
