<svg xmlns="http://www.w3.org/2000/svg" width="19.004" height="23.002" viewBox="0 0 19.004 23.002">
  <path id="iconIphone" d="M607.707,4439.74a5.264,5.264,0,0,1,3.437-1.743,5.027,5.027,0,0,1-1.215,3.673,4.345,4.345,0,0,1-3.461,1.627A4.768,4.768,0,0,1,607.707,4439.74Zm6.677,18.4c-.974,1.4-1.981,2.8-3.571,2.825-1.565.03-2.067-.913-3.852-.913s-2.347.884-3.825.942c-1.535.057-2.7-1.515-3.684-2.911-2.005-2.854-3.537-8.069-1.478-11.589a5.722,5.722,0,0,1,4.826-2.883c1.508-.028,2.932,1,3.852,1s2.651-1.235,4.469-1.054a5.476,5.476,0,0,1,4.267,2.278,5.2,5.2,0,0,0-2.519,4.38,5.087,5.087,0,0,0,3.131,4.652A12.579,12.579,0,0,1,614.384,4458.143Z" transform="translate(-596.996 -4437.997)" fill="#b10e14"/>
</svg>
