<svg xmlns="http://www.w3.org/2000/svg" width="21.999" height="23" viewBox="0 0 21.999 23">
  <path id="iconAndroid" d="M804.431,4460.6l10.782-10.566,4.4,3.98-12.228,6.613a3.025,3.025,0,0,1-2.957-.027ZM803,4458.226v-17.458a2.64,2.64,0,0,1,.411-1.4l10.724,9.694-10.752,10.537A2.648,2.648,0,0,1,803,4458.226Zm13.25-9.211,3.85-3.771,3.426,1.853a2.692,2.692,0,0,1,0,4.8l-2.559,1.384Zm-11.77-10.64a3.03,3.03,0,0,1,2.907-.008l11.376,6.153-3.592,3.52Z" transform="translate(-803 -4437.999)" fill="#f7941e"/>
</svg>
